Coordinates
version=1
nRows=8
nColumns=40
inDegrees=yes

Units are S.I. units (second, meters, Newtons, ...)
If the header above contains a line with 'inDegrees', this indicates whether rotational values are in degrees (yes) or radians (no).

endheader
time	pelvis_tilt	pelvis_list	pelvis_rotation	pelvis_tx	pelvis_ty	pelvis_tz	hip_flexion_r	hip_adduction_r	hip_rotation_r	knee_angle_r	knee_angle_r_beta	ankle_angle_r	subtalar_angle_r	mtp_angle_r	hip_flexion_l	hip_adduction_l	hip_rotation_l	knee_angle_l	knee_angle_l_beta	ankle_angle_l	subtalar_angle_l	mtp_angle_l	lumbar_extension	lumbar_bending	lumbar_rotation	arm_flex_r	arm_add_r	arm_rot_r	elbow_flex_r	pro_sup_r	wrist_flex_r	wrist_dev_r	arm_flex_l	arm_add_l	arm_rot_l	elbow_flex_l	pro_sup_l	wrist_flex_l	wrist_dev_l
     10.37500000	    -48.40697672	    -18.75356369	    -87.18796410	      0.52079147	      1.00941530	     -0.47501627	    -29.95317292	     29.99397421	    -39.97843941	     20.40111376	      0.35606661	    -38.00857671	      0.00000000	      0.00000000	      6.38947994	    -18.04436168	     39.96383297	     39.84670414	      0.69545618	    -28.59136827	      0.00000000	      0.00000000	     89.98593199	     89.99273772	     89.98593705	     43.61732781	     36.17573664	     88.39978030	     26.05838981	      5.28284492	      0.00000000	      0.00000000	    -65.45308328	      2.51416254	    -71.78120874	    101.14360308	     89.26603892	      0.00000000	      0.00000000
     10.38000000	    -48.40091909	    -18.72816814	    -87.20702549	      0.52047336	      1.00941387	     -0.47497330	    -29.95274976	     29.99396988	    -39.97842634	     20.38512059	      0.35578747	    -38.00352572	      0.00000000	      0.00000000	      6.40828472	    -18.04668679	     39.96380929	     39.85802437	      0.69565376	    -28.60932414	      0.00000000	      0.00000000	     89.98593080	     89.99273821	     89.98593562	     43.60186438	     36.17019494	     88.38871403	     26.05111969	      5.28735532	      0.00000000	      0.00000000	    -65.46764436	      2.53372913	    -71.75971961	    101.15323746	     89.28580515	      0.00000000	      0.00000000
     10.38500000	    -48.39273755	    -18.71324513	    -87.21820138	      0.52017949	      1.00939348	     -0.47495220	    -29.95267258	     29.99396572	    -39.97840406	     20.37177777	      0.35555460	    -37.99748359	      0.00000000	      0.00000000	      6.41479751	    -18.04563753	     39.96380873	     39.86625079	      0.69579734	    -28.59206833	      0.00000000	      0.00000000	     89.98591869	     89.99273418	     89.98592350	     43.59028008	     36.15946680	     88.38469455	     26.04679991	      5.29109902	      0.00000000	      0.00000000	    -65.45642484	      2.56380440	    -71.72203704	    101.16614647	     89.27917922	      0.00000000	      0.00000000
     10.39000000	    -48.38108557	    -18.70847847	    -87.22490538	      0.51992017	      1.00935976	     -0.47494740	    -29.95257723	     29.99395806	    -39.97837071	     20.35555093	      0.35527138	    -37.99446131	      0.00000000	      0.00000000	      6.41037446	    -18.03941904	     39.96382210	     39.87592058	      0.69596611	    -28.56203945	      0.00000000	      0.00000000	     89.98590351	     89.99272882	     89.98590825	     43.58239657	     36.14596233	     88.38202026	     26.04127096	      5.29359530	      0.00000000	      0.00000000	    -65.43503472	      2.58793015	    -71.68571558	    101.18067545	     89.25647419	      0.00000000	      0.00000000
     10.39500000	    -48.37197861	    -18.71112757	    -87.22096498	      0.51968328	      1.00929676	     -0.47499908	    -29.95259442	     29.99395479	    -39.97837306	     20.36164611	      0.35537777	    -37.99270485	      0.00000000	      0.00000000	      6.40495797	    -18.04231378	     39.96382920	     39.88598981	      0.69614185	    -28.47462480	      0.00000000	      0.00000000	     89.98590331	     89.99272713	     89.98590803	     43.57437966	     36.12650362	     88.38443434	     26.03930061	      5.29637520	      0.00000000	      0.00000000	    -65.43053401	      2.59809606	    -71.67088466	    101.17210240	     89.28769716	      0.00000000	      0.00000000
     10.40000000	    -48.36307875	    -18.71596057	    -87.21637152	      0.51951555	      1.00919780	     -0.47500108	    -29.95265979	     29.99394899	    -39.97834916	     20.36606997	      0.35545498	    -37.98736830	      0.00000000	      0.00000000	      6.38774436	    -18.04424606	     39.96382014	     39.89202126	      0.69624712	    -28.36876468	      0.00000000	      0.00000000	     89.98589789	     89.99271851	     89.98590284	     43.56990651	     36.11165722	     88.37977473	     26.03770173	      5.29846292	      0.00000000	      0.00000000	    -65.41186387	      2.60888911	    -71.66774109	    101.16862401	     89.29276285	      0.00000000	      0.00000000
     10.40500000	    -48.35224096	    -18.74919443	    -87.19441020	      0.51940385	      1.00910114	     -0.47510971	    -29.95273337	     29.99394587	    -39.97835966	     20.39461595	      0.35595320	    -37.98291488	      0.00000000	      0.00000000	      6.36244593	    -18.04278012	     39.96383174	     39.90753867	      0.69651795	    -28.24688389	      0.00000000	      0.00000000	     89.98591523	     89.99271705	     89.98591996	     43.55611213	     36.08717816	     88.36430448	     26.03449754	      5.30041215	      0.00000000	      0.00000000	    -65.36561663	      2.59424744	    -71.67281072	    101.17036759	     89.29757462	      0.00000000	      0.00000000
     10.41000000	    -48.33174739	    -18.78014229	    -87.17183121	      0.51935034	      1.00902811	     -0.47520155	    -29.95309830	     29.99394171	    -39.97834348	     20.40202552	      0.35608252	    -37.96800258	      0.00000000	      0.00000000	      6.33401489	    -18.02009408	     39.96387556	     39.91783030	      0.69669757	    -28.20033428	      0.00000000	      0.00000000	     89.98592063	     89.99271234	     89.98592544	     43.54910549	     36.06586280	     88.34312493	     26.02344005	      5.30135365	      0.00000000	      0.00000000	    -65.31295415	      2.58524795	    -71.66621554	    101.19653306	     89.24675401	      0.00000000	      0.00000000
